<mxfile host="app.diagrams.net" agent="Mozilla/5.0 (Windows NT 10.0; Win64; x64) AppleWebKit/537.36 (KHTML, like Gecko) Chrome/131.0.0.0 Safari/537.36" version="24.8.3">
  <diagram name="第 1 页" id="0SwpVHxCNwLVzRSgOt-4">
    <mxGraphModel grid="1" page="1" gridSize="10" guides="1" tooltips="1" connect="1" arrows="1" fold="1" pageScale="1" pageWidth="827" pageHeight="1169" math="0" shadow="0">
      <root>
        <mxCell id="0" />
        <mxCell id="1" parent="0" />
        <mxCell id="bt8ulYBIIo1KJCp0RlWx-1" value="" style="rounded=0;whiteSpace=wrap;html=1;fillColor=#FFFFFF;fontColor=#FFFFFF;" vertex="1" parent="1">
          <mxGeometry x="20" y="50" width="520" height="390" as="geometry" />
        </mxCell>
        <mxCell id="nC2gwOPDQhJBuRKp2lCG-8" value="" style="verticalLabelPosition=bottom;verticalAlign=top;html=1;shape=mxgraph.basic.wave2;dy=0.3;strokeColor=default;strokeWidth=1;" vertex="1" parent="1">
          <mxGeometry x="530" y="230" width="100" as="geometry" />
        </mxCell>
        <mxCell id="vWZLC8sISIFWDycgHZcG-6" value="" style="rounded=0;whiteSpace=wrap;html=1;fillColor=#994C00;strokeColor=#d79b00;" vertex="1" parent="1">
          <mxGeometry x="40" y="100" width="230" height="150" as="geometry" />
        </mxCell>
        <mxCell id="vWZLC8sISIFWDycgHZcG-7" value="" style="rounded=0;whiteSpace=wrap;html=1;fillColor=#994C00;strokeColor=#d79b00;" vertex="1" parent="1">
          <mxGeometry x="40" y="270" width="230" height="150" as="geometry" />
        </mxCell>
        <mxCell id="vWZLC8sISIFWDycgHZcG-8" value="" style="rounded=0;whiteSpace=wrap;html=1;fillColor=#994C00;strokeColor=#d79b00;" vertex="1" parent="1">
          <mxGeometry x="290" y="270" width="230" height="150" as="geometry" />
        </mxCell>
        <mxCell id="vWZLC8sISIFWDycgHZcG-9" value="" style="rounded=0;whiteSpace=wrap;html=1;fillColor=#994C00;strokeColor=#d79b00;" vertex="1" parent="1">
          <mxGeometry x="290" y="100" width="230" height="150" as="geometry" />
        </mxCell>
        <mxCell id="vWZLC8sISIFWDycgHZcG-4" value="" style="ellipse;whiteSpace=wrap;html=1;fillColor=#CC6600;" vertex="1" parent="1">
          <mxGeometry x="170" y="160" width="240" height="150" as="geometry" />
        </mxCell>
        <mxCell id="vWZLC8sISIFWDycgHZcG-10" value="CONCEPTUAL" style="text;html=1;align=center;verticalAlign=middle;whiteSpace=wrap;rounded=0;fontSize=18;fontColor=#000033;" vertex="1" parent="1">
          <mxGeometry x="100" y="60" width="112.5" height="30" as="geometry" />
        </mxCell>
        <mxCell id="vWZLC8sISIFWDycgHZcG-11" value="PHYSICAL" style="text;html=1;align=center;verticalAlign=middle;whiteSpace=wrap;rounded=0;fontSize=18;fontColor=#000033;" vertex="1" parent="1">
          <mxGeometry x="384" y="60" width="60" height="30" as="geometry" />
        </mxCell>
        <mxCell id="vWZLC8sISIFWDycgHZcG-12" value="Logical View" style="text;html=1;align=center;verticalAlign=middle;whiteSpace=wrap;rounded=0;fontSize=16;fontColor=#FFFFFF;" vertex="1" parent="1">
          <mxGeometry x="40" y="120" width="230" height="30" as="geometry" />
        </mxCell>
        <mxCell id="vWZLC8sISIFWDycgHZcG-13" value="Deployment View" style="text;html=1;align=center;verticalAlign=middle;whiteSpace=wrap;rounded=0;fontSize=16;labelBackgroundColor=none;fontColor=#FFFFFF;" vertex="1" parent="1">
          <mxGeometry x="290" y="330" width="230" height="30" as="geometry" />
        </mxCell>
        <mxCell id="vWZLC8sISIFWDycgHZcG-14" value="Process View" style="text;html=1;align=center;verticalAlign=middle;whiteSpace=wrap;rounded=0;fontSize=16;fontColor=#FFFFFF;" vertex="1" parent="1">
          <mxGeometry x="40" y="330" width="230" height="30" as="geometry" />
        </mxCell>
        <mxCell id="vWZLC8sISIFWDycgHZcG-15" value="Imaplementation View" style="text;html=1;align=center;verticalAlign=middle;whiteSpace=wrap;rounded=0;fontSize=16;fontColor=#FFFFFF;" vertex="1" parent="1">
          <mxGeometry x="290" y="120" width="230" height="30" as="geometry" />
        </mxCell>
        <mxCell id="vWZLC8sISIFWDycgHZcG-16" value="Class, Objet, Package,&lt;div style=&quot;text-align: left;&quot;&gt;Composite Structure,&lt;/div&gt;&lt;div style=&quot;text-align: left; font-size: 13px;&quot;&gt;State Machine&lt;/div&gt;&lt;div&gt;&lt;br&gt;&lt;/div&gt;" style="text;html=1;align=center;verticalAlign=middle;whiteSpace=wrap;rounded=0;fontColor=#FF9933;" vertex="1" parent="1">
          <mxGeometry x="40" y="200" width="130" height="60" as="geometry" />
        </mxCell>
        <mxCell id="vWZLC8sISIFWDycgHZcG-17" value="Component" style="text;html=1;align=center;verticalAlign=middle;whiteSpace=wrap;rounded=0;fontColor=#FF9933;" vertex="1" parent="1">
          <mxGeometry x="420" y="205" width="120" height="60" as="geometry" />
        </mxCell>
        <mxCell id="vWZLC8sISIFWDycgHZcG-18" value="Deployment" style="text;html=1;align=center;verticalAlign=middle;whiteSpace=wrap;rounded=0;fontColor=#FF9933;" vertex="1" parent="1">
          <mxGeometry x="420" y="370" width="120" height="60" as="geometry" />
        </mxCell>
        <mxCell id="vWZLC8sISIFWDycgHZcG-19" value="&lt;font style=&quot;font-size: 13px;&quot;&gt;Sequence, Commiunication,&lt;/font&gt;&lt;div&gt;&lt;font style=&quot;font-size: 13px;&quot;&gt;Activity, Timing,&amp;nbsp;&lt;/font&gt;&lt;/div&gt;&lt;div&gt;&lt;font style=&quot;font-size: 13px;&quot;&gt;Interaction Overview&lt;/font&gt;&lt;/div&gt;" style="text;html=1;align=left;verticalAlign=middle;whiteSpace=wrap;rounded=0;fontColor=#FF9933;" vertex="1" parent="1">
          <mxGeometry x="40" y="360" width="130" height="60" as="geometry" />
        </mxCell>
        <mxCell id="vWZLC8sISIFWDycgHZcG-20" value="Use Case View" style="text;html=1;align=center;verticalAlign=middle;whiteSpace=wrap;rounded=0;fontSize=16;labelBackgroundColor=none;fontColor=#FFFFFF;" vertex="1" parent="1">
          <mxGeometry x="175" y="215" width="230" height="30" as="geometry" />
        </mxCell>
        <mxCell id="vWZLC8sISIFWDycgHZcG-21" value="Deployment" style="text;html=1;align=center;verticalAlign=middle;whiteSpace=wrap;rounded=0;fontColor=#FF9933;" vertex="1" parent="1">
          <mxGeometry x="225" y="240" width="130" height="60" as="geometry" />
        </mxCell>
      </root>
    </mxGraphModel>
  </diagram>
</mxfile>
